<?xml version="1.0" standalone="no"?>
<!DOCTYPE svg PUBLIC "-//W3C//DTD SVG 20010904//EN"
 "http://www.w3.org/TR/2001/REC-SVG-20010904/DTD/svg10.dtd">
<svg version="1.0" xmlns="http://www.w3.org/2000/svg"
 width="986.000000pt" height="507.000000pt" viewBox="0 0 986.000000 507.000000"
 preserveAspectRatio="xMidYMid meet">

<g transform="translate(0.000000,507.000000) scale(0.100000,-0.100000)"
fill="#000000" stroke="none">
<path d="M0 2535 l0 -2535 4930 0 4930 0 0 2535 0 2535 -4930 0 -4930 0 0
-2535z m9680 425 l0 -1660 -700 0 -700 0 0 525 0 525 553 2 552 3 3 609 2 609
-97 -6 c-149 -10 -261 -47 -351 -115 -40 -31 -82 -99 -82 -135 l0 -27 -230 0
-229 0 -3 450 -3 449 -23 23 c-27 28 -48 18 -74 -32 -15 -30 -16 -59 -11 -266
l6 -233 -78 -81 -78 -80 -459 0 -458 0 0 -60 0 -60 45 0 45 0 0 -102 c0 -57 3
-133 7 -170 l6 -68 42 0 c23 0 63 -3 89 -6 l46 -7 0 -57 0 -57 -46 -7 c-26 -3
-66 -6 -90 -6 l-44 0 0 -105 0 -105 83 -1 c45 -1 92 -4 104 -7 20 -7 394 -318
421 -351 10 -13 12 -91 10 -368 l-3 -353 160 -2 160 -3 0 -35 0 -35 -367 -3
c-363 -2 -368 -2 -368 18 0 11 -2 20 -3 20 -2 0 -142 22 -310 49 l-307 49
-112 65 c-62 35 -123 69 -135 76 l-23 12 0 -223 0 -223 111 -128 c108 -125
110 -128 107 -172 l-3 -45 -142 169 -143 170 0 396 0 395 -43 0 c-30 0 -82
-17 -173 -56 l-129 -56 -370 -54 c-203 -29 -386 -57 -405 -62 l-35 -8 -7 -214
c-4 -118 -5 -364 -2 -546 l6 -331 -513 -1 c-283 -1 -541 2 -574 6 l-60 7 -3
137 -3 138 -849 0 c-843 0 -850 0 -850 -20 0 -19 -7 -20 -170 -20 l-170 0 0
-140 0 -140 -85 0 -85 0 0 1830 0 1830 -800 0 -800 0 0 70 0 70 4620 0 4620 0
0 -1660z m-7850 -395 l0 -1875 -105 0 -105 0 0 861 0 861 -45 -54 c-104 -127
-252 -222 -409 -265 -82 -22 -241 -21 -326 1 -326 85 -571 386 -646 791 -25
136 -15 386 20 517 50 188 131 339 249 464 321 341 782 335 1097 -14 l60 -67
0 328 0 327 105 0 105 0 0 -1875z"/>
<path d="M4800 4510 c0 -7 568 -10 1685 -10 1117 0 1685 3 1685 10 0 7 -568
10 -1685 10 -1117 0 -1685 -3 -1685 -10z"/>
<path d="M2210 3805 l0 -675 1173 0 c1042 0 1482 -7 1605 -26 l32 -5 0 -76 0
-76 -58 6 c-32 4 -181 9 -332 13 l-273 7 6 -159 c4 -87 7 -189 7 -226 l0 -68
455 0 455 0 1 108 c1 59 4 145 7 192 l7 85 45 0 45 0 7 -85 c3 -47 6 -133 7
-192 l1 -108 220 0 220 0 0 125 0 125 40 0 40 0 0 90 0 90 -140 0 -140 0 0 75
0 75 151 0 150 0 180 115 179 115 370 0 370 0 0 35 c0 34 1 35 40 35 l40 0 0
60 0 60 -460 0 -460 0 0 253 0 252 -30 63 c-56 118 -179 216 -342 273 l-83 29
-517 0 -518 0 0 -169 0 -169 175 -77 c172 -77 175 -79 175 -109 0 -59 -6 -58
-179 15 -90 38 -166 69 -167 69 -2 0 -4 -133 -4 -295 0 -276 -1 -298 -21 -351
-26 -70 -88 -135 -145 -152 -52 -15 -2198 -18 -2238 -2 -14 5 -33 24 -43 42
-16 29 -18 66 -21 318 -3 283 -3 286 19 314 31 39 113 76 172 76 l47 0 0 170
0 170 950 0 950 0 0 -152 1 -153 39 43 c50 56 74 127 67 202 -10 109 -81 201
-203 261 l-69 34 -1002 3 -1003 2 0 -675z"/>
<path d="M6181 4348 c95 -74 171 -176 209 -279 20 -53 25 -59 51 -59 16 0 29
2 29 5 0 2 -34 66 -75 141 -41 75 -75 138 -75 140 0 6 356 5 877 -3 l471 -6
103 -124 c56 -67 109 -123 118 -123 36 0 185 85 215 123 29 36 31 45 34 133
l4 94 -1007 0 -1007 0 53 -42z"/>
<path d="M6600 3830 c0 -37 2 -40 28 -39 23 2 24 2 5 6 -13 2 -23 11 -23 18 0
7 10 16 23 18 l22 4 -22 2 c-13 0 -23 5 -23 10 0 5 10 12 23 14 19 4 18 4 -5
6 -26 1 -28 -2 -28 -39z"/>
<path d="M6670 3851 c0 -10 7 -21 15 -25 8 -3 15 -10 15 -17 0 -6 -7 -9 -15
-5 -8 3 -15 1 -15 -4 0 -17 40 -11 47 6 4 11 -2 23 -17 34 l-24 18 25 5 c23 4
23 4 -3 6 -21 1 -28 -4 -28 -18z"/>
<path d="M6738 3863 c6 -2 12 -20 12 -39 0 -19 5 -34 10 -34 6 0 10 15 10 34
0 19 6 37 13 39 6 3 -4 5 -23 5 -19 0 -29 -2 -22 -5z"/>
<path d="M6811 3839 c-15 -45 -14 -51 9 -37 17 11 22 10 30 -2 15 -25 20 -6 8
33 -14 45 -32 47 -47 6z m26 -11 c-3 -8 -6 -5 -6 6 -1 11 2 17 5 13 3 -3 4
-12 1 -19z"/>
<path d="M6884 3845 c-4 -15 -1 -32 7 -41 15 -18 51 -15 57 6 5 13 3 13 -12 1
-20 -17 -40 -3 -34 25 3 13 11 18 26 17 14 -2 21 1 17 7 -3 6 -17 10 -30 10
-18 0 -26 -7 -31 -25z"/>
<path d="M6965 3830 c0 -29 4 -40 15 -40 11 0 15 11 15 40 0 29 -4 40 -15 40
-11 0 -15 -11 -15 -40z"/>
<path d="M7027 3864 c-12 -12 -8 -51 8 -64 26 -22 50 -8 50 30 0 30 -4 35 -25
38 -14 2 -29 0 -33 -4z m47 -20 c7 -19 -12 -47 -25 -38 -5 3 -9 16 -9 30 0 27
24 33 34 8z"/>
<path d="M7110 3830 c0 -41 20 -58 21 -17 l0 22 16 -22 c23 -34 33 -28 33 17
0 41 -20 58 -21 18 l0 -23 -16 23 c-23 33 -33 27 -33 -18z"/>
<path d="M7205 3833 c-15 -36 -12 -60 5 -33 8 12 13 13 30 2 23 -14 24 -8 9
37 -14 41 -25 39 -44 -6z m22 -5 c-3 -8 -6 -5 -6 6 -1 11 2 17 5 13 3 -3 4
-12 1 -19z"/>
<path d="M7281 3828 c1 -39 2 -40 8 -13 7 29 7 29 15 6 6 -16 11 -20 18 -13 8
8 6 16 -6 27 -9 9 -16 21 -16 26 0 5 -4 9 -10 9 -5 0 -9 -19 -9 -42z"/>
<path d="M7333 3854 c-3 -9 -1 -19 4 -23 6 -3 13 -15 16 -26 2 -11 5 -1 6 23
1 42 -14 57 -26 26z"/>
<path d="M7380 3830 c0 -37 2 -40 28 -39 16 1 20 3 10 6 -10 2 -18 11 -18 18
0 7 8 16 18 18 16 4 16 5 0 6 -10 0 -18 5 -18 10 0 5 8 12 18 14 10 3 6 5 -10
6 -26 1 -28 -2 -28 -39z"/>
<path d="M7450 3830 c0 -22 5 -40 10 -40 6 0 10 12 10 28 l1 27 15 -27 c21
-39 34 -35 34 12 0 22 -4 40 -10 40 -5 0 -10 -10 -10 -22 l0 -22 -16 22 c-23
33 -34 27 -34 -18z"/>
<path d="M7538 3863 c6 -2 12 -18 12 -33 0 -16 5 -32 10 -35 6 -4 10 8 10 29
0 19 6 37 13 39 6 3 -4 5 -23 5 -19 0 -29 -2 -22 -5z"/>
<path d="M7612 3858 c-25 -25 -7 -68 29 -68 25 0 42 26 35 55 -7 27 -42 35
-64 13z m43 -28 c0 -27 -22 -39 -31 -16 -8 22 3 49 19 43 6 -2 12 -14 12 -27z"/>
<path d="M7735 3830 c0 -22 5 -40 10 -40 6 0 10 18 10 40 0 22 -4 40 -10 40
-5 0 -10 -18 -10 -40z"/>
<path d="M7785 3830 c0 -29 4 -40 15 -40 11 0 15 11 15 40 0 29 -4 40 -15 40
-11 0 -15 -11 -15 -40z"/>
<path d="M2900 3820 c0 -37 2 -40 28 -39 26 0 26 1 5 9 -13 5 -23 12 -23 15 0
3 10 10 23 15 l22 9 -22 0 c-13 1 -23 5 -23 10 0 5 10 12 23 14 19 4 18 4 -5
6 -26 1 -28 -2 -28 -39z"/>
<path d="M2970 3841 c0 -11 9 -21 21 -24 12 -3 18 -10 15 -16 -4 -6 -14 -7
-24 -4 -13 5 -15 3 -5 -7 14 -16 43 -6 43 14 0 9 -10 21 -22 28 l-23 12 25 7
25 7 -27 1 c-21 1 -28 -4 -28 -18z"/>
<path d="M3038 3853 c6 -2 12 -20 12 -39 0 -19 5 -34 10 -34 6 0 10 15 10 34
0 19 6 37 13 39 6 3 -4 5 -23 5 -19 0 -29 -2 -22 -5z"/>
<path d="M3116 3836 c-3 -13 -9 -32 -12 -41 -6 -15 -4 -15 14 -4 17 11 23 10
38 -2 16 -13 17 -12 11 4 -4 11 -10 30 -13 43 -3 13 -12 24 -19 24 -7 0 -16
-11 -19 -24z"/>
<path d="M3184 3835 c-4 -15 -1 -32 7 -41 15 -18 51 -15 57 6 5 13 3 13 -12 1
-20 -17 -40 -3 -34 25 3 13 11 18 26 17 14 -2 21 1 17 7 -3 6 -17 10 -30 10
-18 0 -26 -7 -31 -25z"/>
<path d="M3275 3820 c0 -22 5 -40 10 -40 6 0 10 18 10 40 0 22 -4 40 -10 40
-5 0 -10 -18 -10 -40z"/>
<path d="M3327 3853 c-11 -11 -8 -48 5 -61 32 -32 80 8 58 48 -10 19 -49 27
-63 13z m48 -33 c0 -36 -29 -33 -33 3 -3 23 0 28 15 25 12 -2 18 -12 18 -28z"/>
<path d="M3410 3820 c0 -22 5 -40 10 -40 6 0 10 12 10 28 l1 27 15 -27 c21
-39 34 -35 34 12 0 22 -4 40 -10 40 -5 0 -10 -10 -10 -22 l0 -22 -16 22 c-23
33 -34 27 -34 -18z"/>
<path d="M3509 3833 c-5 -16 -12 -34 -14 -40 -2 -7 0 -13 5 -13 6 0 10 5 10
10 0 14 37 12 43 -2 10 -25 7 20 -3 46 -12 34 -28 33 -41 -1z"/>
<path d="M3581 3818 c2 -32 3 -36 6 -15 4 27 5 28 19 10 14 -17 14 -17 28 0
14 18 15 17 19 -10 3 -21 4 -17 6 15 1 46 -10 55 -26 20 l-10 -23 -12 23 c-18
35 -31 26 -30 -20z"/>
<path d="M3680 3820 c0 -39 1 -40 33 -39 23 1 26 3 10 6 -27 5 -31 30 -5 36
16 4 16 5 0 6 -26 2 -22 19 5 24 16 3 13 5 -10 6 -32 1 -33 0 -33 -39z"/>
<path d="M3750 3826 c0 -19 5 -38 10 -41 6 -4 10 6 10 22 l1 28 17 -27 c23
-39 32 -35 31 15 -1 37 -2 39 -8 12 l-6 -29 -18 27 c-24 37 -37 34 -37 -7z"/>
<path d="M3842 3853 c11 -3 18 -17 21 -41 l4 -37 1 37 c1 25 7 38 20 41 9 3
-1 5 -23 5 -22 0 -32 -2 -23 -5z"/>
<path d="M3910 3840 c-23 -42 30 -81 60 -45 7 8 10 25 6 40 -8 31 -50 35 -66
5z m45 -20 c0 -13 -6 -25 -12 -27 -16 -6 -27 21 -19 43 9 23 31 11 31 -16z"/>
<path d="M4035 3820 c0 -22 5 -40 10 -40 6 0 10 18 10 40 0 22 -4 40 -10 40
-5 0 -10 -18 -10 -40z"/>
<path d="M4460 3763 l-75 -32 -3 -146 -3 -145 -949 0 -950 0 0 130 c0 109 -2
130 -15 130 -13 0 -15 -26 -15 -178 0 -161 2 -181 18 -195 17 -16 101 -17
1003 -17 846 0 987 2 1005 15 12 8 31 37 43 64 20 47 21 65 19 229 l-3 177
-75 -32z"/>
<path d="M6445 3278 c-16 -6 -42 -19 -57 -29 -14 -11 -39 -19 -54 -19 -26 0
-235 -116 -234 -130 1 -3 85 -67 187 -144 156 -116 187 -136 195 -122 8 14 41
16 283 16 l275 0 0 190 0 190 -80 0 -80 0 0 -36 0 -35 -47 3 c-46 3 -48 4 -51
36 l-3 32 -69 0 c-39 0 -72 5 -76 11 -12 19 -88 49 -124 48 -19 0 -48 -5 -65
-11z"/>
<path d="M2210 2700 l0 -271 170 3 170 3 0 -22 0 -23 849 0 850 0 3 153 c2 83
2 214 0 290 l-3 137 -1019 0 -1020 0 0 -270z"/>
<path d="M7318 2413 l-3 -228 -57 -3 -58 -3 0 -38 c0 -47 -42 -133 -83 -167
-163 -138 -419 -66 -473 134 -12 45 -13 43 -13 -73 l-1 -120 138 -82 137 -82
284 -40 c156 -23 294 -41 306 -41 14 0 25 8 28 20 5 19 14 20 161 20 l156 0 0
319 0 320 -164 145 -164 146 -96 0 -96 0 -2 -227z"/>
<path d="M6654 2536 c-12 -32 0 -61 29 -64 15 -2 27 1 27 6 0 6 -9 8 -20 5
-25 -7 -37 21 -20 42 10 12 16 13 28 3 13 -11 14 -10 10 2 -6 20 -47 25 -54 6z"/>
<path d="M6741 2519 c-16 -45 -14 -51 10 -37 17 10 23 10 26 1 3 -7 9 -13 13
-13 12 0 -14 73 -27 77 -6 2 -16 -10 -22 -28z m29 -9 c0 -5 -5 -10 -11 -10 -5
0 -7 5 -4 10 3 6 8 10 11 10 2 0 4 -4 4 -10z"/>
<path d="M6810 2510 c0 -22 5 -40 10 -40 6 0 10 10 10 23 l0 22 20 -25 c24
-31 32 -23 28 26 -4 37 -4 38 -14 14 l-11 -24 -12 22 c-18 34 -31 26 -31 -18z"/>
<path d="M6898 2543 c6 -2 12 -20 12 -39 0 -19 5 -34 10 -34 6 0 10 15 10 34
0 19 6 37 13 39 6 3 -4 5 -23 5 -19 0 -29 -2 -22 -5z"/>
<path d="M6970 2510 c0 -25 5 -40 13 -40 7 0 12 15 12 40 0 25 -5 40 -12 40
-8 0 -13 -15 -13 -40z"/>
<path d="M7020 2510 c0 -22 5 -40 10 -40 6 0 10 10 10 22 l0 22 16 -22 c23
-33 34 -27 34 18 0 22 -4 40 -10 40 -5 0 -10 -12 -10 -27 l-1 -28 -17 28 c-23
37 -32 34 -32 -13z"/>
<path d="M7119 2523 c-5 -16 -12 -34 -14 -40 -2 -7 0 -13 4 -13 5 0 11 6 14
13 3 9 9 9 26 -1 24 -14 26 -8 10 37 -13 38 -26 40 -40 4z m25 -8 c3 -8 1 -15
-4 -15 -6 0 -10 7 -10 15 0 8 2 15 4 15 2 0 6 -7 10 -15z"/>
<path d="M4367 2233 c-9 -240 -9 -343 0 -343 3 0 100 47 214 105 l207 105 246
0 c134 0 247 3 249 8 2 4 2 76 -1 160 l-4 152 -453 0 -452 0 -6 -187z"/>
<path d="M5396 2224 c-3 -108 -5 -198 -3 -200 2 -2 188 23 413 55 l409 59 133
52 132 52 0 89 0 89 -538 0 -539 0 -7 -196z"/>
<path d="M2550 2260 c0 -19 -7 -20 -170 -20 l-170 0 0 -470 0 -470 170 0 170
0 0 -30 0 -30 850 0 850 0 0 170 c0 94 0 256 0 360 0 105 0 262 0 350 l0 160
-850 0 c-843 0 -850 0 -850 -20z"/>
<path d="M6893 2253 c-13 -2 -36 -17 -51 -33 -22 -21 -42 -30 -85 -35 -55 -7
-57 -9 -57 -36 0 -38 25 -97 53 -128 12 -13 45 -34 72 -47 85 -40 174 -28 246
34 46 40 69 84 69 136 0 34 0 35 -55 41 -43 6 -63 14 -85 36 -16 16 -35 29
-43 29 -9 0 -21 2 -29 4 -7 2 -23 1 -35 -1z"/>
<path d="M4585 1907 l-220 -113 -3 -170 c-2 -93 0 -283 3 -421 l7 -253 454 0
454 0 2 128 c2 70 3 310 3 534 l0 408 -240 0 -240 0 -220 -113z"/>
<path d="M8320 1830 c0 -37 2 -40 28 -39 16 1 20 3 10 6 -10 2 -18 8 -18 13 0
5 8 11 18 13 16 4 16 5 0 6 -10 0 -18 7 -18 15 0 8 8 17 18 19 10 3 6 5 -10 6
-26 1 -28 -2 -28 -39z"/>
<path d="M8394 1855 c-4 -9 4 -24 17 -36 l24 -21 -22 5 c-13 3 -23 1 -23 -4 0
-5 11 -9 25 -9 31 0 35 35 5 45 -11 4 -18 10 -15 15 3 5 13 6 22 3 11 -4 14
-3 9 5 -10 17 -36 15 -42 -3z"/>
<path d="M8458 1863 c6 -2 12 -20 12 -39 0 -19 5 -34 10 -34 6 0 10 15 10 34
0 19 6 37 13 39 6 3 -4 5 -23 5 -19 0 -29 -2 -22 -5z"/>
<path d="M8534 1834 c-8 -20 -12 -39 -8 -43 4 -3 9 0 11 7 3 6 11 12 18 12 7
0 15 -6 18 -12 2 -7 7 -10 11 -7 8 7 -19 79 -29 79 -3 0 -13 -16 -21 -36z"/>
<path d="M8611 1856 c-21 -25 -6 -66 24 -66 13 0 27 4 30 10 4 6 -3 9 -17 7
-15 -1 -23 4 -26 17 -6 28 14 42 34 25 15 -12 17 -12 12 1 -6 21 -42 24 -57 6z"/>
<path d="M8695 1830 c0 -22 5 -40 10 -40 6 0 10 18 10 40 0 22 -4 40 -10 40
-5 0 -10 -18 -10 -40z"/>
<path d="M8750 1856 c-6 -8 -10 -25 -8 -38 4 -32 52 -38 68 -9 22 43 -29 83
-60 47z m45 -16 c8 -24 -1 -40 -21 -40 -8 0 -14 10 -14 23 0 40 24 51 35 17z"/>
<path d="M8830 1830 c0 -22 5 -40 10 -40 6 0 10 10 10 23 l0 22 20 -25 c24
-31 32 -23 28 26 -4 37 -4 38 -14 14 l-11 -24 -12 22 c-18 34 -31 26 -31 -18z"/>
<path d="M8927 1830 c-8 -22 -12 -40 -7 -40 5 0 10 6 13 13 3 10 9 10 26 0 30
-19 31 -17 14 27 -9 22 -19 40 -23 40 -4 0 -14 -18 -23 -40z m33 0 c0 -5 -4
-10 -10 -10 -5 0 -10 5 -10 10 0 6 5 10 10 10 6 0 10 -4 10 -10z"/>
<path d="M9001 1828 c1 -24 3 -35 6 -25 5 20 19 22 27 5 3 -9 9 -7 17 7 13 19
13 19 20 -5 6 -20 7 -17 8 18 1 44 -13 57 -24 22 -3 -11 -10 -20 -15 -20 -5 0
-12 9 -15 20 -11 35 -25 22 -24 -22z"/>
<path d="M9100 1830 c0 -39 1 -40 33 -39 23 1 26 3 10 6 -27 5 -30 20 -5 26
16 4 16 5 0 6 -26 2 -22 29 5 34 16 3 13 5 -10 6 -32 1 -33 0 -33 -39z"/>
<path d="M9177 1864 c-11 -11 -8 -74 3 -74 6 0 10 10 11 23 l0 22 16 -22 c23
-34 33 -28 32 20 -1 37 -2 39 -8 12 l-6 -29 -20 27 c-11 16 -24 25 -28 21z"/>
<path d="M9262 1858 c9 -7 19 -26 21 -43 l4 -30 2 32 c0 19 8 36 19 42 14 8 9
10 -22 11 -34 0 -37 -2 -24 -12z"/>
<path d="M9330 1850 c-16 -31 4 -62 38 -58 19 2 28 10 30 26 7 47 -47 72 -68
32z m50 -26 c0 -19 -5 -25 -17 -22 -22 4 -30 38 -12 49 19 11 29 2 29 -27z"/>
<path d="M9455 1830 c0 -22 5 -40 10 -40 6 0 10 18 10 40 0 22 -4 40 -10 40
-5 0 -10 -18 -10 -40z"/>
<path d="M9505 1830 c0 -29 4 -40 15 -40 11 0 15 11 15 40 0 29 -4 40 -15 40
-11 0 -15 -11 -15 -40z"/>
<path d="M9565 1830 c0 -23 5 -40 11 -40 7 0 14 18 16 40 3 31 0 40 -12 40
-11 0 -15 -11 -15 -40z"/>
<path d="M925 3950 c-213 -35 -414 -211 -509 -447 -57 -139 -71 -216 -70 -398
0 -150 4 -181 26 -266 28 -104 89 -235 144 -310 60 -82 168 -175 246 -213 92
-44 142 -56 243 -56 101 0 151 12 245 57 60 28 93 54 165 127 118 119 182 236
228 416 29 115 31 378 3 485 -93 356 -321 585 -606 608 -36 3 -87 2 -115 -3z"/>
</g>
</svg>
